<svg width="180" height="180" viewBox="0 0 180 180" fill="none" xmlns="http://www.w3.org/2000/svg">
  <!-- Background -->
  <rect width="180" height="180" rx="40" fill="white"/>
  
  <!-- Blue roof/graphic element -->
  <path d="M45 60 L90 30 L135 60 L135 90 L45 90 Z" fill="#007AFF"/>
  
  <!-- Network dots and connections inside the blue shape -->
  <circle cx="60" cy="50" r="2" fill="white" opacity="0.8"/>
  <circle cx="75" cy="45" r="2" fill="white" opacity="0.8"/>
  <circle cx="90" cy="40" r="2" fill="white" opacity="0.8"/>
  <circle cx="105" cy="45" r="2" fill="white" opacity="0.8"/>
  <circle cx="120" cy="50" r="2" fill="white" opacity="0.8"/>
  <circle cx="70" cy="65" r="2" fill="white" opacity="0.8"/>
  <circle cx="85" cy="60" r="2" fill="white" opacity="0.8"/>
  <circle cx="100" cy="60" r="2" fill="white" opacity="0.8"/>
  <circle cx="115" cy="65" r="2" fill="white" opacity="0.8"/>
  <circle cx="80" cy="75" r="2" fill="white" opacity="0.8"/>
  <circle cx="95" cy="75" r="2" fill="white" opacity="0.8"/>
  
  <!-- Connection lines -->
  <line x1="60" y1="50" x2="75" y2="45" stroke="white" stroke-width="1" opacity="0.6"/>
  <line x1="75" y1="45" x2="90" y2="40" stroke="white" stroke-width="1" opacity="0.6"/>
  <line x1="90" y1="40" x2="105" y2="45" stroke="white" stroke-width="1" opacity="0.6"/>
  <line x1="105" y1="45" x2="120" y2="50" stroke="white" stroke-width="1" opacity="0.6"/>
  <line x1="70" y1="65" x2="85" y2="60" stroke="white" stroke-width="1" opacity="0.6"/>
  <line x1="85" y1="60" x2="100" y2="60" stroke="white" stroke-width="1" opacity="0.6"/>
  <line x1="100" y1="60" x2="115" y2="65" stroke="white" stroke-width="1" opacity="0.6"/>
  <line x1="80" y1="75" x2="95" y2="75" stroke="white" stroke-width="1" opacity="0.6"/>
  <line x1="75" y1="45" x2="85" y2="60" stroke="white" stroke-width="1" opacity="0.6"/>
  <line x1="90" y1="40" x2="85" y2="60" stroke="white" stroke-width="1" opacity="0.6"/>
  <line x1="90" y1="40" x2="100" y2="60" stroke="white" stroke-width="1" opacity="0.6"/>
  <line x1="105" y1="45" x2="100" y2="60" stroke="white" stroke-width="1" opacity="0.6"/>
  <line x1="85" y1="60" x2="80" y2="75" stroke="white" stroke-width="1" opacity="0.6"/>
  <line x1="100" y1="60" x2="95" y2="75" stroke="white" stroke-width="1" opacity="0.6"/>
  
  <!-- bagsy text -->
  <text x="90" y="130" text-anchor="middle" font-family="Arial, sans-serif" font-size="24" font-weight="bold" fill="#000000">bagsy</text>
</svg>