<svg width="180" height="180" viewBox="0 0 180 180" fill="none" xmlns="http://www.w3.org/2000/svg">
  <rect width="180" height="180" rx="40" fill="#007AFF"/>
  <path d="M90 45C85.5 45 82 48.5 82 53C82 57.5 85.5 61 90 61C94.5 61 98 57.5 98 53C98 48.5 94.5 45 90 45Z" fill="white"/>
  <path d="M90 70C85.5 70 82 73.5 82 78C82 82.5 85.5 86 90 86C94.5 86 98 82.5 98 78C98 73.5 94.5 70 90 70Z" fill="white"/>
  <path d="M90 95C85.5 95 82 98.5 82 103C82 107.5 85.5 111 90 111C94.5 111 98 107.5 98 103C98 98.5 94.5 95 90 95Z" fill="white"/>
  <path d="M90 120C85.5 120 82 123.5 82 128C82 132.5 85.5 136 90 136C94.5 136 98 132.5 98 128C98 123.5 94.5 120 90 120Z" fill="white"/>
</svg>
