<svg width="32" height="32" viewBox="0 0 32 32" fill="none" xmlns="http://www.w3.org/2000/svg">
  <!-- Background -->
  <rect width="32" height="32" rx="6" fill="white"/>
  
  <!-- Blue roof/graphic element -->
  <path d="M8 12 L16 6 L24 12 L24 18 L8 18 Z" fill="#007AFF"/>
  
  <!-- Network dots and connections inside the blue shape -->
  <circle cx="10" cy="10" r="1" fill="white" opacity="0.8"/>
  <circle cx="13" cy="9" r="1" fill="white" opacity="0.8"/>
  <circle cx="16" cy="8" r="1" fill="white" opacity="0.8"/>
  <circle cx="19" cy="9" r="1" fill="white" opacity="0.8"/>
  <circle cx="22" cy="10" r="1" fill="white" opacity="0.8"/>
  <circle cx="12" cy="14" r="1" fill="white" opacity="0.8"/>
  <circle cx="15" cy="13" r="1" fill="white" opacity="0.8"/>
  <circle cx="17" cy="13" r="1" fill="white" opacity="0.8"/>
  <circle cx="20" cy="14" r="1" fill="white" opacity="0.8"/>
  <circle cx="14" cy="16" r="1" fill="white" opacity="0.8"/>
  <circle cx="18" cy="16" r="1" fill="white" opacity="0.8"/>
  
  <!-- Connection lines -->
  <line x1="10" y1="10" x2="13" y2="9" stroke="white" stroke-width="0.5" opacity="0.6"/>
  <line x1="13" y1="9" x2="16" y2="8" stroke="white" stroke-width="0.5" opacity="0.6"/>
  <line x1="16" y1="8" x2="19" y2="9" stroke="white" stroke-width="0.5" opacity="0.6"/>
  <line x1="19" y1="9" x2="22" y2="10" stroke="white" stroke-width="0.5" opacity="0.6"/>
  <line x1="12" y1="14" x2="15" y2="13" stroke="white" stroke-width="0.5" opacity="0.6"/>
  <line x1="15" y1="13" x2="17" y2="13" stroke="white" stroke-width="0.5" opacity="0.6"/>
  <line x1="17" y1="13" x2="20" y2="14" stroke="white" stroke-width="0.5" opacity="0.6"/>
  <line x1="14" y1="16" x2="18" y2="16" stroke="white" stroke-width="0.5" opacity="0.6"/>
  <line x1="13" y1="9" x2="15" y2="13" stroke="white" stroke-width="0.5" opacity="0.6"/>
  <line x1="16" y1="8" x2="15" y2="13" stroke="white" stroke-width="0.5" opacity="0.6"/>
  <line x1="16" y1="8" x2="17" y2="13" stroke="white" stroke-width="0.5" opacity="0.6"/>
  <line x1="19" y1="9" x2="17" y2="13" stroke="white" stroke-width="0.5" opacity="0.6"/>
  <line x1="15" y1="13" x2="14" y2="16" stroke="white" stroke-width="0.5" opacity="0.6"/>
  <line x1="17" y1="13" x2="18" y2="16" stroke="white" stroke-width="0.5" opacity="0.6"/>
  
  <!-- bagsy text -->
  <text x="16" y="26" text-anchor="middle" font-family="Arial, sans-serif" font-size="4" font-weight="bold" fill="#000000">bagsy</text>
</svg>
