<svg width="32" height="32" viewBox="0 0 32 32" fill="none" xmlns="http://www.w3.org/2000/svg" style="display: block;">
  <!-- Dark blue background -->
  <rect width="32" height="32" rx="8" fill="#1E3A8A" style="fill: #1E3A8A !important;"/>
  
  <!-- Stylized "B" letter -->
  <g transform="translate(16, 16)">
    <!-- B letter outline -->
    <path d="M-8 -8 L-2 -8 L-2 -2 L0 -2 L0 -8 L6 -8 L6 -6 L2 -6 L2 -4 L4 -4 L4 -2 L2 -2 L2 0 L4 0 L4 2 L2 2 L2 4 L4 4 L4 6 L2 6 L2 8 L6 8 L6 6 L0 6 L0 2 L-2 2 L-2 8 L-8 8 Z" fill="white" style="fill: white !important;"/>
    
    <!-- Inner curves of B (transparent to show background) -->
    <path d="M-6 -6 L0 -6 L0 -4 L-2 -4 L-2 -2 L0 -2 L0 0 L-2 0 L-2 2 L0 2 L0 4 L-2 4 L-2 6 L0 6 L0 4 L2 4 L2 2 L0 2 L0 0 L2 0 L2 -2 L0 -2 L0 -4 L2 -4 L2 -6 L0 -6 Z" fill="transparent" style="fill: transparent !important;"/>
    
    <!-- Teal arrow -->
    <path d="M-4 4 Q-2 2 0 4 Q2 6 4 4" stroke="#14B8A6" stroke-width="2" fill="none" stroke-linecap="round" style="stroke: #14B8A6 !important;"/>
    <path d="M2 2 L4 4 L2 6" stroke="#14B8A6" stroke-width="2" fill="none" stroke-linecap="round" stroke-linejoin="round" style="stroke: #14B8A6 !important;"/>
  </g>
</svg>