<svg xmlns="http://www.w3.org/2000/svg" width="1200" height="1200" fill="none">
  <rect width="1200" height="1200" fill="#EAEAEA" rx="3"/>
  
  <!-- Bagsy logo centered -->
  <g transform="translate(600, 600)">
    <!-- Dark blue rounded square background -->
    <rect x="-200" y="-100" width="400" height="200" rx="50" fill="#1E3A8A"/>
    
    <!-- Stylized "B" letter -->
    <g transform="translate(-50, 0)">
      <!-- B letter outline -->
      <path d="M-80 -40 L-20 -40 L-20 -20 L0 -20 L0 -40 L40 -40 L40 -30 L20 -30 L20 -20 L30 -20 L30 -10 L20 -10 L20 0 L30 0 L30 10 L20 10 L20 20 L30 20 L30 30 L20 30 L20 40 L40 40 L40 30 L0 30 L0 10 L-20 10 L-20 40 L-80 40 Z" fill="white"/>
      
      <!-- Inner curves of B (transparent to show background) -->
      <path d="M-60 -30 L0 -30 L0 -20 L-20 -20 L-20 -10 L0 -10 L0 0 L-20 0 L-20 10 L0 10 L0 20 L-20 20 L-20 30 L0 30 L0 20 L20 20 L20 10 L0 10 L0 0 L20 0 L20 -10 L0 -10 L0 -20 L20 -20 L20 -30 L0 -30 Z" fill="transparent"/>
      
      <!-- Teal arrow -->
      <path d="M-30 20 Q-10 10 0 20 Q10 30 30 20" stroke="#14B8A6" stroke-width="6" fill="none" stroke-linecap="round"/>
      <path d="M20 10 L30 20 L20 30" stroke="#14B8A6" stroke-width="6" fill="none" stroke-linecap="round" stroke-linejoin="round"/>
    </g>
    
    <!-- Bagsy text -->
    <text x="250" y="20" font-family="Arial, sans-serif" font-size="80" font-weight="bold" fill="#333333">Bagsy</text>
  </g>
</svg>